<mxfile host="app.diagrams.net" agent="Mozilla/5.0 (Macintosh; Intel Mac OS X 10_15_7) AppleWebKit/537.36 (KHTML, like Gecko) Chrome/134.0.0.0 Safari/537.36 OPR/119.0.0.0" version="27.2.0">
  <diagram name="หน้า-1" id="axuyyEVFG7uyzSgx_TH8">
    <mxGraphModel dx="935" dy="675" grid="1" gridSize="10" guides="1" tooltips="1" connect="1" arrows="1" fold="1" page="1" pageScale="1" pageWidth="827" pageHeight="1169" math="0" shadow="0">
      <root>
        <mxCell id="0" />
        <mxCell id="1" parent="0" />
        <mxCell id="FjoXJfc7_WBLy8_cEE0z-3" style="edgeStyle=orthogonalEdgeStyle;rounded=0;orthogonalLoop=1;jettySize=auto;html=1;entryX=0.5;entryY=0;entryDx=0;entryDy=0;" edge="1" parent="1" source="FjoXJfc7_WBLy8_cEE0z-1" target="FjoXJfc7_WBLy8_cEE0z-2">
          <mxGeometry relative="1" as="geometry" />
        </mxCell>
        <mxCell id="FjoXJfc7_WBLy8_cEE0z-1" value="" style="ellipse;whiteSpace=wrap;html=1;aspect=fixed;" vertex="1" parent="1">
          <mxGeometry x="399" y="14" width="30" height="30" as="geometry" />
        </mxCell>
        <mxCell id="FjoXJfc7_WBLy8_cEE0z-8" style="edgeStyle=orthogonalEdgeStyle;rounded=0;orthogonalLoop=1;jettySize=auto;html=1;entryX=0.5;entryY=0;entryDx=0;entryDy=0;" edge="1" parent="1" source="FjoXJfc7_WBLy8_cEE0z-2" target="FjoXJfc7_WBLy8_cEE0z-7">
          <mxGeometry relative="1" as="geometry" />
        </mxCell>
        <mxCell id="FjoXJfc7_WBLy8_cEE0z-2" value="&lt;meta charset=&quot;utf-8&quot;&gt;วิเคราะห์และเก็บข้อมูลความต้องการจากเจ้าหน้าที่และสมาชิก" style="rounded=1;whiteSpace=wrap;html=1;" vertex="1" parent="1">
          <mxGeometry x="319" y="84" width="190" height="60" as="geometry" />
        </mxCell>
        <mxCell id="FjoXJfc7_WBLy8_cEE0z-10" value="" style="edgeStyle=orthogonalEdgeStyle;rounded=0;orthogonalLoop=1;jettySize=auto;html=1;" edge="1" parent="1" source="FjoXJfc7_WBLy8_cEE0z-7" target="FjoXJfc7_WBLy8_cEE0z-9">
          <mxGeometry relative="1" as="geometry" />
        </mxCell>
        <mxCell id="FjoXJfc7_WBLy8_cEE0z-7" value="&lt;p data-end=&quot;397&quot; data-start=&quot;370&quot;&gt;&lt;strong data-end=&quot;397&quot; data-start=&quot;373&quot;&gt;&lt;font style=&quot;font-size: 10px;&quot;&gt;เลือกประเภทกระบวนการ&lt;/font&gt;&lt;/strong&gt;&lt;/p&gt;&lt;p data-end=&quot;397&quot; data-start=&quot;370&quot;&gt;&lt;font style=&quot;font-size: 10px;&quot;&gt;&lt;strong data-end=&quot;397&quot; data-start=&quot;373&quot;&gt;-&lt;/strong&gt;&lt;span style=&quot;background-color: transparent; color: light-dark(rgb(0, 0, 0), rgb(255, 255, 255));&quot;&gt;ลงทะเบียนหนังสือ&lt;/span&gt;&lt;/font&gt;&lt;/p&gt;&lt;p data-end=&quot;397&quot; data-start=&quot;370&quot;&gt;&lt;font style=&quot;font-size: 10px;&quot;&gt;&lt;span style=&quot;background-color: transparent; color: light-dark(rgb(0, 0, 0), rgb(255, 255, 255));&quot;&gt;-&lt;/span&gt;&lt;span style=&quot;background-color: transparent; color: light-dark(rgb(0, 0, 0), rgb(255, 255, 255));&quot;&gt;ลงทะเบียนสมาชิก&lt;/span&gt;&lt;/font&gt;&lt;/p&gt;&lt;p data-end=&quot;397&quot; data-start=&quot;370&quot;&gt;&lt;font style=&quot;font-size: 10px;&quot;&gt;&lt;span style=&quot;background-color: transparent; color: light-dark(rgb(0, 0, 0), rgb(255, 255, 255));&quot;&gt;-&lt;/span&gt;&lt;span style=&quot;background-color: transparent; color: light-dark(rgb(0, 0, 0), rgb(255, 255, 255));&quot;&gt;ยืม/คืนหนังสือ&lt;/span&gt;&lt;/font&gt;&lt;/p&gt;&lt;p data-end=&quot;397&quot; data-start=&quot;370&quot;&gt;&lt;font style=&quot;font-size: 10px;&quot;&gt;&lt;span style=&quot;background-color: transparent; color: light-dark(rgb(0, 0, 0), rgb(255, 255, 255));&quot;&gt;-&lt;/span&gt;&lt;span style=&quot;background-color: transparent; color: light-dark(rgb(0, 0, 0), rgb(255, 255, 255));&quot;&gt;จัดการชั้นวาง&lt;/span&gt;&lt;/font&gt;&lt;/p&gt;" style="rounded=1;whiteSpace=wrap;html=1;" vertex="1" parent="1">
          <mxGeometry x="327.5" y="184" width="173" height="130" as="geometry" />
        </mxCell>
        <mxCell id="FjoXJfc7_WBLy8_cEE0z-11" style="edgeStyle=orthogonalEdgeStyle;rounded=0;orthogonalLoop=1;jettySize=auto;html=1;" edge="1" parent="1" source="FjoXJfc7_WBLy8_cEE0z-9">
          <mxGeometry relative="1" as="geometry">
            <mxPoint x="414" y="504" as="targetPoint" />
          </mxGeometry>
        </mxCell>
        <mxCell id="FjoXJfc7_WBLy8_cEE0z-9" value="&lt;font style=&quot;font-size: 10px;&quot;&gt;เลือกประเภทกระบวนการ&lt;/font&gt;" style="rhombus;whiteSpace=wrap;html=1;rounded=1;" vertex="1" parent="1">
          <mxGeometry x="324" y="354" width="180" height="110" as="geometry" />
        </mxCell>
        <mxCell id="FjoXJfc7_WBLy8_cEE0z-12" value="" style="shape=link;html=1;rounded=0;" edge="1" parent="1">
          <mxGeometry width="100" relative="1" as="geometry">
            <mxPoint x="280" y="507" as="sourcePoint" />
            <mxPoint x="540" y="507" as="targetPoint" />
          </mxGeometry>
        </mxCell>
        <mxCell id="FjoXJfc7_WBLy8_cEE0z-26" style="edgeStyle=orthogonalEdgeStyle;rounded=0;orthogonalLoop=1;jettySize=auto;html=1;entryX=0.5;entryY=0;entryDx=0;entryDy=0;" edge="1" parent="1" source="FjoXJfc7_WBLy8_cEE0z-13" target="FjoXJfc7_WBLy8_cEE0z-22">
          <mxGeometry relative="1" as="geometry" />
        </mxCell>
        <mxCell id="FjoXJfc7_WBLy8_cEE0z-13" value="&lt;meta charset=&quot;utf-8&quot;&gt;ลงทะเบียนหนังสือ" style="rounded=1;whiteSpace=wrap;html=1;" vertex="1" parent="1">
          <mxGeometry x="99" y="580" width="120" height="60" as="geometry" />
        </mxCell>
        <mxCell id="FjoXJfc7_WBLy8_cEE0z-27" style="edgeStyle=orthogonalEdgeStyle;rounded=0;orthogonalLoop=1;jettySize=auto;html=1;entryX=0.5;entryY=0;entryDx=0;entryDy=0;" edge="1" parent="1" source="FjoXJfc7_WBLy8_cEE0z-14" target="FjoXJfc7_WBLy8_cEE0z-23">
          <mxGeometry relative="1" as="geometry" />
        </mxCell>
        <mxCell id="FjoXJfc7_WBLy8_cEE0z-14" value="ลงทะเบียนสมาชิก" style="rounded=1;whiteSpace=wrap;html=1;" vertex="1" parent="1">
          <mxGeometry x="269" y="580" width="120" height="60" as="geometry" />
        </mxCell>
        <mxCell id="FjoXJfc7_WBLy8_cEE0z-28" style="edgeStyle=orthogonalEdgeStyle;rounded=0;orthogonalLoop=1;jettySize=auto;html=1;entryX=0.5;entryY=0;entryDx=0;entryDy=0;" edge="1" parent="1" source="FjoXJfc7_WBLy8_cEE0z-15" target="FjoXJfc7_WBLy8_cEE0z-24">
          <mxGeometry relative="1" as="geometry" />
        </mxCell>
        <mxCell id="FjoXJfc7_WBLy8_cEE0z-15" value="ยืมและคืนหนังสือ" style="rounded=1;whiteSpace=wrap;html=1;" vertex="1" parent="1">
          <mxGeometry x="443" y="580" width="120" height="60" as="geometry" />
        </mxCell>
        <mxCell id="FjoXJfc7_WBLy8_cEE0z-29" style="edgeStyle=orthogonalEdgeStyle;rounded=0;orthogonalLoop=1;jettySize=auto;html=1;entryX=0.5;entryY=0;entryDx=0;entryDy=0;" edge="1" parent="1" source="FjoXJfc7_WBLy8_cEE0z-16" target="FjoXJfc7_WBLy8_cEE0z-25">
          <mxGeometry relative="1" as="geometry" />
        </mxCell>
        <mxCell id="FjoXJfc7_WBLy8_cEE0z-16" value="จัดการชั้นวางหนังสือ" style="rounded=1;whiteSpace=wrap;html=1;" vertex="1" parent="1">
          <mxGeometry x="609" y="580" width="120" height="60" as="geometry" />
        </mxCell>
        <mxCell id="FjoXJfc7_WBLy8_cEE0z-17" value="" style="endArrow=classic;html=1;rounded=0;entryX=0.5;entryY=0;entryDx=0;entryDy=0;" edge="1" parent="1" target="FjoXJfc7_WBLy8_cEE0z-13">
          <mxGeometry width="50" height="50" relative="1" as="geometry">
            <mxPoint x="290" y="510" as="sourcePoint" />
            <mxPoint x="160" y="550" as="targetPoint" />
          </mxGeometry>
        </mxCell>
        <mxCell id="FjoXJfc7_WBLy8_cEE0z-18" value="" style="endArrow=classic;html=1;rounded=0;entryX=0.5;entryY=0;entryDx=0;entryDy=0;" edge="1" parent="1" target="FjoXJfc7_WBLy8_cEE0z-14">
          <mxGeometry width="50" height="50" relative="1" as="geometry">
            <mxPoint x="360" y="510" as="sourcePoint" />
            <mxPoint x="410" y="620" as="targetPoint" />
          </mxGeometry>
        </mxCell>
        <mxCell id="FjoXJfc7_WBLy8_cEE0z-20" value="" style="endArrow=classic;html=1;rounded=0;entryX=0.5;entryY=0;entryDx=0;entryDy=0;" edge="1" parent="1" target="FjoXJfc7_WBLy8_cEE0z-16">
          <mxGeometry width="50" height="50" relative="1" as="geometry">
            <mxPoint x="530" y="510" as="sourcePoint" />
            <mxPoint x="399" y="585" as="targetPoint" />
          </mxGeometry>
        </mxCell>
        <mxCell id="FjoXJfc7_WBLy8_cEE0z-21" value="" style="endArrow=classic;html=1;rounded=0;entryX=0.5;entryY=0;entryDx=0;entryDy=0;" edge="1" parent="1" target="FjoXJfc7_WBLy8_cEE0z-15">
          <mxGeometry width="50" height="50" relative="1" as="geometry">
            <mxPoint x="474" y="510" as="sourcePoint" />
            <mxPoint x="443" y="580" as="targetPoint" />
          </mxGeometry>
        </mxCell>
        <mxCell id="FjoXJfc7_WBLy8_cEE0z-22" value="&lt;font style=&quot;font-size: 10px;&quot;&gt;-ป้อนข้อมูลหนังสือใหม่&lt;/font&gt;&lt;div&gt;&lt;font style=&quot;font-size: 10px;&quot;&gt;-ตรวจสอบ/แก้ไข/ลบข้อมูล&lt;/font&gt;&lt;/div&gt;" style="rounded=1;whiteSpace=wrap;html=1;" vertex="1" parent="1">
          <mxGeometry x="99" y="700" width="120" height="60" as="geometry" />
        </mxCell>
        <mxCell id="FjoXJfc7_WBLy8_cEE0z-23" value="&lt;font style=&quot;font-size: 10px;&quot;&gt;-กรอกข้อมูลสมาชิก&lt;/font&gt;&lt;div&gt;&lt;font style=&quot;font-size: 10px;&quot;&gt;-ตรวจสอบซ้ำซ้อน&lt;/font&gt;&lt;/div&gt;&lt;div&gt;&lt;font style=&quot;font-size: 10px;&quot;&gt;-แสดงประวัติยืมคืน&lt;/font&gt;&lt;/div&gt;" style="rounded=1;whiteSpace=wrap;html=1;" vertex="1" parent="1">
          <mxGeometry x="269" y="700" width="120" height="60" as="geometry" />
        </mxCell>
        <mxCell id="FjoXJfc7_WBLy8_cEE0z-24" value="&lt;div&gt;&lt;font style=&quot;font-size: 10px;&quot;&gt;&lt;br&gt;&lt;/font&gt;&lt;/div&gt;&lt;font style=&quot;font-size: 10px;&quot;&gt;-สมาชิกเลือกหนังสือ&lt;/font&gt;&lt;div&gt;&lt;font style=&quot;font-size: 10px;&quot;&gt;-ระบบตรวจสอบจำนวนที่ยืมได้&lt;/font&gt;&lt;/div&gt;&lt;div&gt;&lt;font style=&quot;font-size: 10px;&quot;&gt;-บันทึกวันที่ยืม / วันที่ครบกำหนด&lt;/font&gt;&lt;/div&gt;&lt;div&gt;&lt;font style=&quot;font-size: 10px;&quot;&gt;-เมื่อคืน: อัปเดตสถานะ และบันทึกประวัติ&lt;/font&gt;&lt;/div&gt;&lt;div&gt;&lt;br&gt;&lt;/div&gt;" style="rounded=1;whiteSpace=wrap;html=1;" vertex="1" parent="1">
          <mxGeometry x="430" y="700" width="147" height="90" as="geometry" />
        </mxCell>
        <mxCell id="FjoXJfc7_WBLy8_cEE0z-25" value="&lt;font style=&quot;font-size: 10px;&quot;&gt;-แสดงตำแหน่งหนังสือ&lt;/font&gt;&lt;div&gt;&lt;font style=&quot;font-size: 10px;&quot;&gt;-&lt;span style=&quot;background-color: transparent; color: light-dark(rgb(0, 0, 0), rgb(255, 255, 255));&quot;&gt;ค้นหา / จัดเรียงใหม่&lt;/span&gt;&lt;/font&gt;&lt;/div&gt;" style="rounded=1;whiteSpace=wrap;html=1;" vertex="1" parent="1">
          <mxGeometry x="609" y="700" width="120" height="60" as="geometry" />
        </mxCell>
        <mxCell id="FjoXJfc7_WBLy8_cEE0z-41" style="edgeStyle=orthogonalEdgeStyle;rounded=0;orthogonalLoop=1;jettySize=auto;html=1;entryX=0.5;entryY=0;entryDx=0;entryDy=0;" edge="1" parent="1" source="FjoXJfc7_WBLy8_cEE0z-32" target="FjoXJfc7_WBLy8_cEE0z-40">
          <mxGeometry relative="1" as="geometry" />
        </mxCell>
        <mxCell id="FjoXJfc7_WBLy8_cEE0z-32" value="บันทึกลงระบบ" style="rounded=1;whiteSpace=wrap;html=1;" vertex="1" parent="1">
          <mxGeometry x="354" y="927" width="120" height="60" as="geometry" />
        </mxCell>
        <mxCell id="FjoXJfc7_WBLy8_cEE0z-33" value="" style="shape=link;html=1;rounded=0;" edge="1" parent="1">
          <mxGeometry width="100" relative="1" as="geometry">
            <mxPoint x="284" y="863" as="sourcePoint" />
            <mxPoint x="544" y="863" as="targetPoint" />
          </mxGeometry>
        </mxCell>
        <mxCell id="FjoXJfc7_WBLy8_cEE0z-34" value="" style="endArrow=classic;html=1;rounded=0;exitX=0.5;exitY=1;exitDx=0;exitDy=0;" edge="1" parent="1" source="FjoXJfc7_WBLy8_cEE0z-22">
          <mxGeometry width="50" height="50" relative="1" as="geometry">
            <mxPoint x="150" y="810" as="sourcePoint" />
            <mxPoint x="330" y="860" as="targetPoint" />
          </mxGeometry>
        </mxCell>
        <mxCell id="FjoXJfc7_WBLy8_cEE0z-35" value="" style="endArrow=classic;html=1;rounded=0;" edge="1" parent="1">
          <mxGeometry width="50" height="50" relative="1" as="geometry">
            <mxPoint x="322" y="760" as="sourcePoint" />
            <mxPoint x="400" y="860" as="targetPoint" />
          </mxGeometry>
        </mxCell>
        <mxCell id="FjoXJfc7_WBLy8_cEE0z-36" value="" style="endArrow=classic;html=1;rounded=0;exitX=0.5;exitY=1;exitDx=0;exitDy=0;" edge="1" parent="1" source="FjoXJfc7_WBLy8_cEE0z-24">
          <mxGeometry width="50" height="50" relative="1" as="geometry">
            <mxPoint x="400" y="780" as="sourcePoint" />
            <mxPoint x="460" y="860" as="targetPoint" />
          </mxGeometry>
        </mxCell>
        <mxCell id="FjoXJfc7_WBLy8_cEE0z-37" value="" style="endArrow=classic;html=1;rounded=0;exitX=0.5;exitY=1;exitDx=0;exitDy=0;" edge="1" parent="1" source="FjoXJfc7_WBLy8_cEE0z-25">
          <mxGeometry width="50" height="50" relative="1" as="geometry">
            <mxPoint x="400" y="780" as="sourcePoint" />
            <mxPoint x="510" y="860" as="targetPoint" />
          </mxGeometry>
        </mxCell>
        <mxCell id="FjoXJfc7_WBLy8_cEE0z-39" value="" style="endArrow=classic;html=1;rounded=0;entryX=0.5;entryY=0;entryDx=0;entryDy=0;" edge="1" parent="1">
          <mxGeometry width="50" height="50" relative="1" as="geometry">
            <mxPoint x="414" y="865" as="sourcePoint" />
            <mxPoint x="414" y="925" as="targetPoint" />
          </mxGeometry>
        </mxCell>
        <mxCell id="FjoXJfc7_WBLy8_cEE0z-40" value="" style="ellipse;whiteSpace=wrap;html=1;aspect=fixed;" vertex="1" parent="1">
          <mxGeometry x="399" y="1030" width="30" height="30" as="geometry" />
        </mxCell>
      </root>
    </mxGraphModel>
  </diagram>
</mxfile>
